<svg version="1.1" id="Layer_1" xmlns="http://www.w3.org/2000/svg" x="0px" y="0px"
     viewBox="0 0 512 512" style="enable-background:new 0 0 512 512;" xml:space="preserve">
<g>
	<path style="fill:#000000" d="M427.1,173.7c-26.2-69.1-92.9-118.2-171-118.2s-144.8,49.1-171,118.2C35.9,186.6-0.3,231.5,0,284.9
		c0.3,59.7,46.6,108.2,104.9,113.4c2.7,0.2,5-1.9,5-4.6v-34.5c0-2.3-1.7-4.2-4-4.5c-15.4-1.9-30-8.7-41.2-19.7
		c-13.7-13.4-21.3-31.5-21.3-50.6c0-16,5.2-31.1,15-43.7c9.5-12.2,23-21.1,37.8-25l21.7-5.7l7.9-21c4.9-13,11.8-25.3,20.4-36.3
		c8.5-11,18.6-20.6,29.9-28.6c23.5-16.5,51.1-25.3,80-25.3c28.9,0,56.5,8.7,80,25.3c11.4,8,21.4,17.6,29.9,28.6
		c8.6,11,15.5,23.3,20.4,36.3l7.9,20.9l21.6,5.7c31,8.2,52.6,36.4,52.6,68.6c0,19.2-7.5,37.2-21.3,50.6
		c-11.1,11-25.7,17.8-41.1,19.7c-2.3,0.3-3.9,2.2-3.9,4.5v34.6c0,2.7,2.3,4.8,5,4.6C465.4,393,511.6,344.6,512,285
		C512.3,231.7,476.2,186.7,427.1,173.7z"/>
    <path style="fill:#000000" d="M178.8,337.9c1-19.1,9-37,22.6-50.6c14.5-14.6,34.3-22.7,54.9-22.7c20.7,0,40.2,8.1,54.9,22.7c0.8,0.8,1.5,1.6,2.3,2.5
		L299.1,301c-2,1.5-2.4,4.4-0.8,6.4c0.6,0.8,1.5,1.4,2.5,1.6l56.1,13.7c2.9,0.7,5.7-1.5,5.7-4.4l0.3-57.9c0-3.8-4.3-6-7.4-3.6
		l-13.3,10.4c-20.9-24-51.7-39.2-86-39.2c-61.4,0-111.4,48.6-113.9,109.5c-0.1,2.6,1.9,4.7,4.6,4.7h27.4
		C176.7,342.3,178.7,340.4,178.8,337.9z M365.1,342.3h-27.4c-2.4,0-4.4,1.9-4.6,4.3c-1,19.1-9,37-22.6,50.6
		c-14.5,14.6-34.3,22.7-54.9,22.7c-20.7,0-40.2-8.1-54.9-22.7c-0.8-0.8-1.5-1.6-2.3-2.5l14.3-11.2c2-1.5,2.4-4.4,0.8-6.4
		c-0.6-0.8-1.5-1.4-2.5-1.6L155,361.8c-2.9-0.7-5.7,1.5-5.7,4.4l-0.2,57.9c0,3.8,4.3,6,7.4,3.6l13.3-10.4c20.9,24,51.7,39.2,86,39.2
		c61.4,0,111.4-48.6,113.9-109.5C369.8,344.5,367.8,342.3,365.1,342.3z"/>
</g>
</svg>